<svg xmlns="http://www.w3.org/2000/svg" xmlns:xlink="http://www.w3.org/1999/xlink" width="200" zoomAndPan="magnify" viewBox="0 0 80 30.000001" height="80" preserveAspectRatio="xMidYMid meet" version="1.0"><defs><g/><clipPath id="1ffb87a529"><path d="M 1.453125 0 L 88.546875 0 L 88.546875 29.03125 L 1.453125 29.03125 Z M 1.453125 0 " clip-rule="nonzero"/></clipPath><clipPath id="72ab91fc77"><path d="M 71.070312 0.640625 L 79.78125 0.640625 L 79.78125 9.347656 L 71.070312 9.347656 Z M 71.070312 0.640625 " clip-rule="nonzero"/></clipPath></defs><g clip-path="url(#1ffb87a529)"><path fill="#ffffff" d="M 1.453125 0 L 88.546875 0 L 88.546875 29.03125 L 1.453125 29.03125 Z M 1.453125 0 " fill-opacity="1" fill-rule="nonzero"/><path fill="#ffffff" d="M 1.453125 0 L 88.546875 0 L 88.546875 29.03125 L 1.453125 29.03125 Z M 1.453125 0 " fill-opacity="1" fill-rule="nonzero"/></g><g fill="#87cefa" fill-opacity="1"><g transform="translate(10.087946, 22.947099)"><g><path d="M 2.21875 0 C 1.914062 0 1.695312 -0.0664062 1.5625 -0.203125 C 1.425781 -0.347656 1.359375 -0.554688 1.359375 -0.828125 L 1.359375 -14.875 C 1.359375 -15.164062 1.425781 -15.378906 1.5625 -15.515625 C 1.695312 -15.660156 1.914062 -15.734375 2.21875 -15.734375 L 8.140625 -15.734375 C 10.035156 -15.734375 11.441406 -15.28125 12.359375 -14.375 C 13.285156 -13.476562 13.75 -12.1875 13.75 -10.5 C 13.75 -8.832031 13.285156 -7.550781 12.359375 -6.65625 C 11.441406 -5.769531 10.035156 -5.328125 8.140625 -5.328125 L 4.328125 -5.328125 L 4.328125 -0.828125 C 4.328125 -0.554688 4.257812 -0.347656 4.125 -0.203125 C 4 -0.0664062 3.773438 0 3.453125 0 Z M 8 -7.5625 C 8.945312 -7.5625 9.648438 -7.804688 10.109375 -8.296875 C 10.578125 -8.785156 10.8125 -9.519531 10.8125 -10.5 C 10.8125 -11.507812 10.578125 -12.253906 10.109375 -12.734375 C 9.648438 -13.222656 8.945312 -13.46875 8 -13.46875 L 4.328125 -13.46875 L 4.328125 -7.5625 Z M 8 -7.5625 "/></g></g></g><g fill="#87cefa" fill-opacity="1"><g transform="translate(24.275029, 22.947099)"><g><path d="M 6.171875 0 C 5.867188 0 5.644531 -0.0664062 5.5 -0.203125 C 5.363281 -0.347656 5.296875 -0.554688 5.296875 -0.828125 L 5.296875 -13.46875 L 1.25 -13.46875 C 0.9375 -13.46875 0.722656 -13.53125 0.609375 -13.65625 C 0.492188 -13.78125 0.4375 -13.988281 0.4375 -14.28125 L 0.4375 -14.90625 C 0.4375 -15.195312 0.492188 -15.40625 0.609375 -15.53125 C 0.722656 -15.664062 0.9375 -15.734375 1.25 -15.734375 L 12.3125 -15.734375 C 12.625 -15.734375 12.835938 -15.664062 12.953125 -15.53125 C 13.078125 -15.40625 13.140625 -15.195312 13.140625 -14.90625 L 13.140625 -14.28125 C 13.140625 -13.988281 13.078125 -13.78125 12.953125 -13.65625 C 12.835938 -13.53125 12.625 -13.46875 12.3125 -13.46875 L 8.265625 -13.46875 L 8.265625 -0.828125 C 8.265625 -0.554688 8.195312 -0.347656 8.0625 -0.203125 C 7.9375 -0.0664062 7.707031 0 7.375 0 Z M 6.171875 0 "/></g></g></g><g fill="#87cefa" fill-opacity="1"><g transform="translate(37.860372, 22.947099)"><g><path d="M 1.296875 0 C 1.035156 0 0.90625 -0.113281 0.90625 -0.34375 C 0.90625 -0.4375 0.925781 -0.535156 0.96875 -0.640625 L 7.078125 -15.140625 C 7.171875 -15.367188 7.269531 -15.523438 7.375 -15.609375 C 7.488281 -15.691406 7.644531 -15.734375 7.84375 -15.734375 L 9.125 -15.734375 C 9.332031 -15.734375 9.488281 -15.691406 9.59375 -15.609375 C 9.695312 -15.523438 9.789062 -15.367188 9.875 -15.140625 L 15.984375 -0.640625 C 16.035156 -0.535156 16.0625 -0.4375 16.0625 -0.34375 C 16.0625 -0.113281 15.929688 0 15.671875 0 L 13.65625 0 C 13.457031 0 13.3125 -0.0234375 13.21875 -0.078125 C 13.132812 -0.128906 13.054688 -0.242188 12.984375 -0.421875 L 11.65625 -3.65625 L 5.28125 -3.65625 L 3.984375 -0.421875 C 3.898438 -0.242188 3.816406 -0.128906 3.734375 -0.078125 C 3.648438 -0.0234375 3.507812 0 3.3125 0 Z M 10.921875 -5.8125 L 8.46875 -11.875 L 6.015625 -5.8125 Z M 10.921875 -5.8125 "/></g></g></g><g fill="#87cefa" fill-opacity="1"><g transform="translate(54.824699, 22.947099)"><g><path d="M 2.21875 0 C 1.914062 0 1.695312 -0.0664062 1.5625 -0.203125 C 1.425781 -0.347656 1.359375 -0.554688 1.359375 -0.828125 L 1.359375 -14.875 C 1.359375 -15.164062 1.425781 -15.378906 1.5625 -15.515625 C 1.695312 -15.660156 1.914062 -15.734375 2.21875 -15.734375 L 3.453125 -15.734375 C 3.753906 -15.734375 3.972656 -15.660156 4.109375 -15.515625 C 4.253906 -15.378906 4.328125 -15.164062 4.328125 -14.875 L 4.328125 -9.046875 L 11.921875 -9.046875 L 11.921875 -14.875 C 11.921875 -15.164062 11.988281 -15.378906 12.125 -15.515625 C 12.257812 -15.660156 12.484375 -15.734375 12.796875 -15.734375 L 14 -15.734375 C 14.3125 -15.734375 14.535156 -15.660156 14.671875 -15.515625 C 14.804688 -15.378906 14.875 -15.164062 14.875 -14.875 L 14.875 -0.828125 C 14.875 -0.554688 14.804688 -0.347656 14.671875 -0.203125 C 14.546875 -0.0664062 14.320312 0 14 0 L 12.796875 0 C 12.484375 0 12.257812 -0.0664062 12.125 -0.203125 C 11.988281 -0.347656 11.921875 -0.554688 11.921875 -0.828125 L 11.921875 -6.796875 L 4.328125 -6.796875 L 4.328125 -0.828125 C 4.328125 -0.554688 4.257812 -0.347656 4.125 -0.203125 C 4 -0.0664062 3.773438 0 3.453125 0 Z M 2.21875 0 "/></g></g></g><g clip-path="url(#72ab91fc77)"><path fill="#b1365b" d="M 74.605469 0.640625 C 74.277344 0.640625 74.015625 0.902344 74.015625 1.226562 L 74.015625 3.585938 L 71.660156 3.585938 C 71.335938 3.585938 71.070312 3.847656 71.070312 4.171875 L 71.070312 5.941406 C 71.070312 6.265625 71.335938 6.527344 71.660156 6.527344 L 74.015625 6.527344 L 74.015625 8.886719 C 74.015625 9.210938 74.28125 9.472656 74.605469 9.472656 L 76.371094 9.472656 C 76.699219 9.472656 76.960938 9.210938 76.960938 8.886719 L 76.960938 6.527344 L 79.316406 6.527344 C 79.644531 6.527344 79.90625 6.265625 79.90625 5.941406 L 79.90625 4.171875 C 79.90625 3.847656 79.644531 3.585938 79.316406 3.585938 L 76.960938 3.585938 L 76.960938 1.226562 C 76.960938 0.902344 76.699219 0.640625 76.371094 0.640625 Z M 74.605469 0.640625 " fill-opacity="1" fill-rule="nonzero"/></g></svg>